<svg width="18" height="24" viewBox="0 0 18 24" fill="none" xmlns="http://www.w3.org/2000/svg">
<path fill-rule="evenodd" clip-rule="evenodd" d="M6.1623 17.6331V1.95967H11.0272V5.88686C11.0272 6.42808 11.4631 6.86645 12.0001 6.86645H15.892V17.6331H6.1623ZM12.4866 21.5515H2.27041V5.87804H4.21635V18.6127C4.21635 19.154 4.65225 19.5923 5.18933 19.5923H12.4866V21.5515ZM12.9731 3.3453L14.5245 4.90726H12.9731V3.3453ZM17.5529 5.18547L12.688 0.287509C12.5056 0.103835 12.258 0.000488281 12.0001 0.000488281H5.18933C4.65225 0.000488281 4.21635 0.439345 4.21635 0.98008V3.91886H1.29744C0.760355 3.91886 0.324463 4.35771 0.324463 4.89845V22.5311C0.324463 23.0723 0.760355 23.5107 1.29744 23.5107H13.4596C13.9967 23.5107 14.4326 23.0723 14.4326 22.5311V19.5923H16.865C17.4021 19.5923 17.838 19.154 17.838 18.6127V5.87804C17.838 5.61845 17.7353 5.36914 17.5529 5.18547Z" fill="#B8C5D3"/>
<path fill-rule="evenodd" clip-rule="evenodd" d="M8.59472 10.0413H11.0272C11.4304 10.0413 11.7569 9.71265 11.7569 9.30661C11.7569 8.90106 11.4304 8.57191 11.0272 8.57191H8.59472C8.19142 8.57191 7.86499 8.90106 7.86499 9.30661C7.86499 9.71265 8.19142 10.0413 8.59472 10.0413Z" fill="#B8C5D3"/>
<path fill-rule="evenodd" clip-rule="evenodd" d="M13.4596 11.5107H8.59472C8.19142 11.5107 7.86499 11.8398 7.86499 12.2454C7.86499 12.6514 8.19142 12.9801 8.59472 12.9801H13.4596C13.8629 12.9801 14.1893 12.6514 14.1893 12.2454C14.1893 11.8398 13.8629 11.5107 13.4596 11.5107Z" fill="#B8C5D3"/>
<path fill-rule="evenodd" clip-rule="evenodd" d="M13.4596 14.4495H8.59472C8.19142 14.4495 7.86499 14.7786 7.86499 15.1842C7.86499 15.5902 8.19142 15.9189 8.59472 15.9189H13.4596C13.8629 15.9189 14.1893 15.5902 14.1893 15.1842C14.1893 14.7786 13.8629 14.4495 13.4596 14.4495Z" fill="#B8C5D3"/>
</svg>
