<svg width="21" height="24" viewBox="0 0 21 24" fill="none" xmlns="http://www.w3.org/2000/svg">
<path fill-rule="evenodd" clip-rule="evenodd" d="M16.0485 12H2.0835V5H16.0485L18.3815 8.5L16.0485 12ZM20.4155 7.945L17.4155 3.445C17.23 3.17 16.918 3 16.5835 3H10.3335V1C10.3335 0.45 9.8855 0 9.3335 0C8.7815 0 8.3335 0.45 8.3335 1V3H1.0835C0.531496 3 0.0834961 3.45 0.0834961 4V13C0.0834961 13.555 0.531496 14 1.0835 14H8.3335V22H6.974C6.422 22 5.974 22.45 5.974 23C5.974 23.555 6.422 24 6.974 24H11.693C12.245 24 12.693 23.555 12.693 23C12.693 22.45 12.245 22 11.693 22H10.3335V14H16.5835C16.918 14 17.23 13.835 17.4155 13.555L20.4155 9.055C20.6395 8.72 20.6395 8.28 20.4155 7.945Z" fill="#B8C5D3"/>
</svg>
