<svg width="24" height="21" viewBox="0 0 24 21" fill="none" xmlns="http://www.w3.org/2000/svg">
<path fill-rule="evenodd" clip-rule="evenodd" d="M21.8777 17.72L19.6393 15.665C19.4581 15.495 19.223 15.405 18.983 15.405H6.78217V13.405H18.3609C18.8997 13.405 19.3405 12.96 19.3405 12.405V6.33H21.8777V17.72ZM4.52421 11.665L2.28584 13.72V2.33H17.3814V11.405H5.18054C5.05809 11.405 4.93564 11.43 4.82299 11.475C4.71523 11.52 4.61237 11.58 4.52421 11.665ZM22.8573 4.33H19.3405V1.33C19.3405 0.775002 18.8997 0.330002 18.3609 0.330002H1.30625C0.767476 0.330002 0.32666 0.775002 0.32666 1.33V15.965C0.32666 16.36 0.551966 16.72 0.909517 16.88C1.03686 16.94 1.16911 16.965 1.30625 16.965C1.54135 16.965 1.77646 16.88 1.96258 16.71L4.82299 14.08V16.405C4.82299 16.96 5.2638 17.405 5.80258 17.405H18.6058L22.2009 20.71C22.3871 20.88 22.6222 20.965 22.8573 20.965C22.9944 20.965 23.1267 20.94 23.254 20.88C23.6116 20.72 23.8369 20.36 23.8369 19.965V5.33C23.8369 4.775 23.396 4.33 22.8573 4.33Z" fill="#B8C5D3"/>
</svg>
