<svg width="13" height="14" viewBox="0 0 13 14" fill="none" xmlns="http://www.w3.org/2000/svg">
<path fill-rule="evenodd" clip-rule="evenodd" d="M11.133 6H7.06135V1.845C7.06135 1.29 6.6225 0.845001 6.08176 0.845001C5.54103 0.845001 5.10217 1.29 5.10217 1.845V6H1.0305C0.489271 6 0.0509033 6.45 0.0509033 7C0.0509033 7.555 0.489271 8 1.0305 8H5.10217V12.155C5.10217 12.71 5.54103 13.155 6.08176 13.155C6.6225 13.155 7.06135 12.71 7.06135 12.155V8H11.133C11.6743 8 12.1126 7.555 12.1126 7C12.1126 6.45 11.6743 6 11.133 6Z" fill="white"/>
</svg>
