<svg width="23" height="24" viewBox="0 0 23 24" fill="none" xmlns="http://www.w3.org/2000/svg">
<path fill-rule="evenodd" clip-rule="evenodd" d="M3.09276 16.634C3.09276 16.634 3.09276 16.634 3.09276 16.6344C3.09276 16.634 3.09276 16.634 3.09276 16.634ZM3.11233 16.6624V16.6673C3.11233 16.6677 3.11233 16.6677 3.11233 16.6677C3.11233 16.6677 3.11233 16.6658 3.11233 16.6624ZM10.0955 21.4369C11.0694 21.5897 12.097 21.5897 13.0708 21.4369V19.7657C13.0708 19.3357 13.3498 18.9561 13.7608 18.8292C14.8032 18.5079 15.7525 17.9593 16.5796 17.1992C16.8928 16.9082 17.3625 16.8573 17.7345 17.0738L19.183 17.9206C19.4668 17.5758 19.7213 17.2124 19.9513 16.8338C20.01 16.73 20.0736 16.6183 20.1421 16.5061C20.3477 16.1349 20.5336 15.7469 20.6902 15.3482L19.2368 14.5009C18.8698 14.2844 18.6789 13.8514 18.7768 13.4331C18.9089 12.8645 18.9774 12.3002 18.9774 11.7556C18.9774 11.2237 18.9138 10.6731 18.7866 10.1202C18.6936 9.70138 18.8845 9.26938 19.2564 9.05534L20.7098 8.21828C20.5434 7.77893 20.3379 7.35085 20.103 6.93942C20.0981 6.93256 20.0785 6.89387 20.0736 6.88701C20.0638 6.87036 20.0442 6.83852 20.0345 6.82089C19.7947 6.41044 19.5255 6.01469 19.2221 5.63901L17.7687 6.47607C17.3968 6.69012 16.927 6.63673 16.6138 6.34383C15.7917 5.57877 14.8032 5.00375 13.7608 4.68195C13.3498 4.5551 13.0708 4.1755 13.0708 3.74546V2.07477C12.097 1.92195 11.0694 1.92195 10.0955 2.07477V3.74546C10.0955 4.1755 9.81169 4.5551 9.40063 4.68195C8.35829 5.00375 7.40893 5.55232 6.5868 6.31248C6.26871 6.60342 5.79893 6.65436 5.42701 6.43787L3.9785 5.59101C3.69956 5.93583 3.4451 6.29975 3.2151 6.67787C2.92148 7.1515 2.6768 7.64865 2.47616 8.16342L3.92467 9.01077C4.29659 9.22726 4.48254 9.66024 4.38467 10.0785C4.25254 10.6472 4.18893 11.2114 4.18893 11.7556C4.18893 12.288 4.25254 12.8385 4.37488 13.3915C4.46786 13.8103 4.2819 14.2423 3.90999 14.4563L2.45169 15.2934C2.5985 15.6661 2.76978 16.0389 2.96552 16.4077L3.10744 16.6565C3.11233 16.6677 3.12212 16.6795 3.12701 16.6908C3.3668 17.1012 3.64084 17.497 3.93935 17.8726L5.39765 17.0356C5.76956 16.8215 6.23446 16.8749 6.55254 17.1678C7.36978 17.9329 8.35829 18.5079 9.40063 18.8292C9.81169 18.9561 10.0955 19.3357 10.0955 19.7657V21.4369ZM11.5832 23.5107C10.6632 23.5107 9.75786 23.4034 8.8819 23.1913C8.44637 23.0846 8.13807 22.6917 8.13807 22.2397V20.4578C7.29148 20.1203 6.49382 19.6535 5.76956 19.08L4.21829 19.9729C3.8268 20.1992 3.32765 20.1252 3.01935 19.7941C2.41744 19.152 1.88893 18.4482 1.45339 17.7012C1.42893 17.666 1.40446 17.6277 1.38488 17.5817L1.24297 17.3412C0.851479 16.6051 0.543181 15.8606 0.327862 15.119C0.200628 14.6846 0.391479 14.2207 0.782969 13.9954L2.32935 13.104C2.26573 12.6504 2.23148 12.1993 2.23148 11.7556C2.23148 11.2952 2.26573 10.826 2.33914 10.3533L0.792756 9.45012C0.401267 9.22187 0.220203 8.75461 0.347437 8.32065C0.631267 7.38465 1.03254 6.48881 1.54148 5.65861C1.97212 4.94644 2.48595 4.27395 3.06829 3.66318C3.38148 3.33452 3.87573 3.26301 4.26722 3.49224L5.8185 4.39542C6.52808 3.83265 7.30616 3.38301 8.13807 3.05289V1.27199C8.13807 0.819912 8.44637 0.427095 8.8819 0.32032C10.6289 -0.103844 12.5374 -0.103844 14.2796 0.32032C14.72 0.427095 15.0283 0.819912 15.0283 1.27199V3.05387C15.87 3.39134 16.6725 3.85763 17.3919 4.43167L18.9432 3.53877C19.3396 3.31199 19.8338 3.38644 20.147 3.71754C20.7489 4.36114 21.2774 5.06644 21.713 5.81485C21.7423 5.86089 21.7717 5.9084 21.7962 5.95542C22.2415 6.7342 22.5889 7.54971 22.8336 8.39118C22.9608 8.82563 22.7749 9.29044 22.3834 9.51624L20.8321 10.4077C20.9006 10.8612 20.9349 11.3123 20.9349 11.7556C20.9349 12.2165 20.8957 12.6857 20.8223 13.1584L22.3687 14.0615C22.7602 14.2898 22.9462 14.7561 22.814 15.1895C22.5791 15.9796 22.2513 16.7481 21.8402 17.4749C21.7668 17.6062 21.6983 17.7277 21.6249 17.8447C21.1894 18.5652 20.6755 19.2382 20.0981 19.848C19.7849 20.1771 19.2857 20.2477 18.8942 20.0189L17.3479 19.1162C16.6334 19.679 15.8602 20.1286 15.0283 20.4588V22.2397C15.0283 22.6917 14.72 23.0846 14.2796 23.1913C13.4085 23.4034 12.4983 23.5107 11.5832 23.5107Z" fill="#B8C5D3"/>
<path fill-rule="evenodd" clip-rule="evenodd" d="M11.5832 9.32718C10.2423 9.32718 9.15595 10.417 9.15595 11.7556C9.15595 13.0947 10.2423 14.1845 11.5832 14.1845C12.9191 14.1845 14.0104 13.0947 14.0104 11.7556C14.0104 10.417 12.9191 9.32718 11.5832 9.32718ZM11.5832 15.6539C9.43489 15.6539 7.68787 13.9053 7.68787 11.7556C7.68787 9.60636 9.43489 7.85779 11.5832 7.85779C13.7315 7.85779 15.4785 9.60636 15.4785 11.7556C15.4785 13.9053 13.7315 15.6539 11.5832 15.6539Z" fill="#B8C5D3"/>
</svg>
