<svg width="24" height="20" viewBox="0 0 24 20" fill="none" xmlns="http://www.w3.org/2000/svg">
<path fill-rule="evenodd" clip-rule="evenodd" d="M18.6529 18H5.51066L4.01237 11.5H20.1511L18.6529 18ZM2.28584 9.5H21.8777V7H2.28584V9.5ZM22.8573 5H21.2145L15.1038 0.500004C14.6649 0.180004 14.0522 0.280004 13.7363 0.730004C13.4199 1.175 13.5188 1.8 13.9577 2.125L17.8653 5H6.29825L10.2058 2.125C10.6447 1.8 10.7436 1.175 10.4272 0.730004C10.1113 0.280004 9.49907 0.180004 9.05972 0.500004L2.94903 5H1.30625C0.765517 5 0.32666 5.45 0.32666 6V10.5C0.32666 11.055 0.765517 11.5 1.30625 11.5H1.9998L3.78119 19.23C3.88552 19.68 4.28029 20 4.73482 20H19.4287C19.8832 20 20.278 19.68 20.3823 19.23L22.1637 11.5H22.8573C23.398 11.5 23.8369 11.055 23.8369 10.5V6C23.8369 5.45 23.398 5 22.8573 5Z" fill="#B8C5D3"/>
<path fill-rule="evenodd" clip-rule="evenodd" d="M10.6124 16.75C11.0184 16.75 11.3471 16.415 11.3471 16V13.5C11.3471 13.085 11.0184 12.75 10.6124 12.75C10.2063 12.75 9.87769 13.085 9.87769 13.5V16C9.87769 16.415 10.2063 16.75 10.6124 16.75Z" fill="#B8C5D3"/>
<path fill-rule="evenodd" clip-rule="evenodd" d="M13.5511 16.75C13.9571 16.75 14.2858 16.415 14.2858 16V13.5C14.2858 13.085 13.9571 12.75 13.5511 12.75C13.1451 12.75 12.8164 13.085 12.8164 13.5V16C12.8164 16.415 13.1451 16.75 13.5511 16.75Z" fill="#B8C5D3"/>
<path fill-rule="evenodd" clip-rule="evenodd" d="M16.4899 16.75C16.896 16.75 17.2246 16.415 17.2246 16V13.5C17.2246 13.085 16.896 12.75 16.4899 12.75C16.0839 12.75 15.7552 13.085 15.7552 13.5V16C15.7552 16.415 16.0839 16.75 16.4899 16.75Z" fill="#B8C5D3"/>
<path fill-rule="evenodd" clip-rule="evenodd" d="M7.67366 16.75C8.0797 16.75 8.40835 16.415 8.40835 16V13.5C8.40835 13.085 8.0797 12.75 7.67366 12.75C7.26762 12.75 6.93896 13.085 6.93896 13.5V16C6.93896 16.415 7.26762 16.75 7.67366 16.75Z" fill="#B8C5D3"/>
</svg>
