<svg width="24" height="24" viewBox="0 0 24 24" fill="none" xmlns="http://www.w3.org/2000/svg">
<path fill-rule="evenodd" clip-rule="evenodd" d="M4.24507 18.5H5.6307V15H4.24507V18.5ZM6.6103 20.5H3.26548C2.72426 20.5 2.28589 20.055 2.28589 19.5V14C2.28589 13.45 2.72426 13 3.26548 13H6.6103C7.15103 13 7.58989 13.45 7.58989 14V19.5C7.58989 20.055 7.15103 20.5 6.6103 20.5Z" fill="white"/>
<path fill-rule="evenodd" clip-rule="evenodd" d="M11.3887 18.5H12.7744V8.5H11.3887V18.5ZM13.754 20.5H10.4092C9.86842 20.5 9.42957 20.055 9.42957 19.5V7.5C9.42957 6.95 9.86842 6.5 10.4092 6.5H13.754C14.2952 6.5 14.7336 6.95 14.7336 7.5V19.5C14.7336 20.055 14.2952 20.5 13.754 20.5Z" fill="white"/>
<path fill-rule="evenodd" clip-rule="evenodd" d="M18.5329 18.5H19.9185V2H18.5329V18.5ZM20.8981 20.5H17.5533C17.0126 20.5 16.5737 20.055 16.5737 19.5V1C16.5737 0.45 17.0126 0 17.5533 0H20.8981C21.4389 0 21.8777 0.45 21.8777 1V19.5C21.8777 20.055 21.4389 20.5 20.8981 20.5Z" fill="white"/>
<path fill-rule="evenodd" clip-rule="evenodd" d="M22.8573 24H1.30625C0.765517 24 0.32666 23.555 0.32666 23C0.32666 22.45 0.765517 22 1.30625 22H22.8573C23.398 22 23.8369 22.45 23.8369 23C23.8369 23.555 23.398 24 22.8573 24Z" fill="white"/>
</svg>
