<?xml version="1.0" standalone="no"?>
<!DOCTYPE svg PUBLIC "-//W3C//DTD SVG 20010904//EN"
 "http://www.w3.org/TR/2001/REC-SVG-20010904/DTD/svg10.dtd">
<svg version="1.0" xmlns="http://www.w3.org/2000/svg"
 width="512.000000pt" height="512.000000pt" viewBox="0 0 512.000000 512.000000"
 preserveAspectRatio="xMidYMid meet">

<g transform="translate(0.000000,512.000000) scale(0.100000,-0.100000)"
fill="#f6425b" stroke="none">
<path d="M706 5100 c-60 -23 -119 -79 -149 -140 -20 -40 -22 -63 -25 -221 l-4
-177 -81 -4 c-135 -7 -227 -63 -285 -173 l-27 -50 0 -2055 0 -2055 24 -45 c32
-61 86 -116 146 -148 l50 -27 1501 -3 c1459 -2 1502 -2 1525 17 32 26 32 86 0
112 -22 18 -72 19 -1498 19 -1448 0 -1474 0 -1513 20 -21 11 -49 34 -62 52
l-23 33 -3 1643 -2 1642 495 0 496 0 24 25 c32 31 32 69 0 100 l-24 25 -496 0
-496 0 3 308 c3 306 3 307 27 341 32 44 92 71 162 71 l57 0 4 -88 c3 -71 10
-100 32 -145 46 -94 129 -146 237 -147 77 0 141 24 190 73 58 58 79 111 86
217 l6 90 162 0 163 0 4 -92 c6 -135 51 -213 150 -262 102 -51 237 -27 315 55
54 57 73 112 73 212 l0 87 169 0 169 0 4 -97 c4 -106 15 -136 71 -199 100
-115 299 -112 400 6 48 56 67 116 67 212 l0 78 170 0 170 0 0 -87 c0 -100 19
-155 73 -212 78 -82 213 -106 315 -55 99 49 144 127 150 262 l4 92 163 0 162
0 6 -90 c7 -104 28 -161 81 -212 60 -59 99 -73 196 -73 96 0 127 12 186 72 54
53 76 112 82 215 l5 88 56 0 c70 0 130 -27 162 -71 24 -34 24 -35 27 -341 l3
-308 -1661 0 -1661 0 -24 -25 c-32 -31 -32 -69 0 -100 l24 -25 1661 0 1660 0
-2 -1642 -3 -1643 -23 -33 c-13 -18 -41 -41 -62 -52 -38 -19 -61 -20 -593 -20
l-554 0 -21 -23 c-31 -33 -29 -80 5 -107 26 -20 30 -21 597 -18 l571 3 50 23
c63 29 119 83 153 147 l27 50 0 2055 0 2055 -27 50 c-58 110 -150 166 -285
173 l-81 4 -4 177 c-3 160 -5 180 -26 223 -45 91 -150 158 -247 158 -101 0
-204 -68 -246 -162 -21 -47 -24 -71 -27 -225 l-4 -173 -164 0 -164 0 0 158 c0
191 -12 243 -73 309 -51 55 -104 83 -172 90 -111 12 -219 -48 -269 -149 -25
-50 -26 -58 -26 -230 l0 -178 -170 0 -170 0 0 174 0 174 -33 64 c-71 138 -231
186 -369 111 -53 -29 -103 -87 -125 -146 -7 -20 -12 -99 -12 -204 l-1 -173
-170 0 -170 0 0 178 c0 172 -1 180 -26 230 -50 101 -158 161 -270 149 -63 -6
-107 -27 -157 -76 -75 -71 -82 -93 -85 -298 l-4 -183 -163 0 -163 0 -4 173
c-3 154 -6 178 -27 225 -59 132 -211 194 -345 142z m147 -144 c67 -27 67 -30
67 -387 l0 -321 -34 -34 c-29 -29 -41 -34 -81 -34 -40 0 -52 5 -80 33 -44 44
-47 68 -43 397 3 306 6 317 71 345 41 18 60 18 100 1z m881 -1 c65 -31 66 -39
66 -380 0 -336 -2 -350 -60 -380 -62 -32 -136 -9 -165 51 -12 26 -15 84 -15
329 0 327 2 338 63 375 39 24 68 25 111 5z m910 -24 l31 -31 3 -315 c3 -347 1
-359 -58 -390 -60 -31 -137 -10 -165 45 -14 26 -15 76 -13 344 l3 314 25 27
c33 36 57 46 104 41 27 -3 49 -14 70 -35z m847 24 c16 -9 39 -30 49 -48 19
-30 20 -52 20 -330 0 -247 -3 -305 -15 -331 -39 -82 -159 -90 -205 -14 -19 31
-20 51 -20 341 0 342 1 350 64 381 40 20 70 20 107 1z m899 -13 c14 -10 30
-34 37 -53 15 -43 17 -568 3 -621 -15 -54 -61 -88 -117 -88 -38 0 -50 5 -79
34 l-34 34 0 321 c0 286 2 325 17 348 35 53 118 65 173 25z"/>
<path d="M785 3155 l-25 -24 0 -296 0 -296 25 -24 24 -25 296 0 c174 0 304 4
315 10 34 18 40 65 40 335 0 270 -6 317 -40 335 -11 6 -141 10 -315 10 l-296
0 -24 -25z m515 -320 l0 -195 -195 0 -195 0 0 195 0 195 195 0 195 0 0 -195z"/>
<path d="M1752 3157 c-22 -23 -22 -29 -22 -323 l0 -301 23 -21 c23 -22 29 -22
323 -22 l301 0 21 23 c22 23 22 29 22 325 0 297 0 302 -22 322 -21 19 -34 20
-323 20 l-302 0 -21 -23z m518 -322 l0 -195 -195 0 -195 0 0 195 0 195 195 0
195 0 0 -195z"/>
<path d="M2720 3160 c-19 -19 -20 -33 -20 -323 l0 -304 23 -21 c23 -22 29 -22
324 -22 l302 0 20 26 c20 26 21 38 21 324 l0 297 -23 21 c-23 22 -29 22 -325
22 -289 0 -303 -1 -322 -20z m520 -325 l0 -195 -195 0 -195 0 0 195 0 195 195
0 195 0 0 -195z"/>
<path d="M3697 3168 c-32 -25 -37 -67 -37 -332 0 -271 6 -318 40 -336 11 -6
141 -10 315 -10 l296 0 24 25 25 24 0 296 0 296 -25 24 -24 25 -299 0 c-223 0
-302 -3 -315 -12z m513 -333 l0 -195 -195 0 -195 0 0 195 0 195 195 0 195 0 0
-195z"/>
<path d="M785 2175 l-25 -24 0 -294 c0 -283 1 -295 21 -321 l20 -26 308 0
c300 0 308 1 327 21 18 20 19 40 19 321 l0 300 -28 24 -28 24 -295 0 -295 0
-24 -25z m515 -320 l0 -195 -195 0 -195 0 0 195 0 195 195 0 195 0 0 -195z"/>
<path d="M1755 2175 l-25 -24 0 -299 c0 -286 1 -299 20 -320 21 -22 25 -22
325 -22 292 0 306 1 325 20 19 19 20 33 20 324 l0 305 -26 20 c-26 20 -38 21
-321 21 l-294 0 -24 -25z m515 -320 l0 -195 -195 0 -195 0 0 195 0 195 195 0
195 0 0 -195z"/>
<path d="M2726 2179 l-26 -20 0 -305 c0 -291 1 -305 20 -324 19 -19 33 -20
325 -20 300 0 304 0 325 22 19 21 20 34 20 320 l0 299 -25 24 -24 25 -294 0
c-283 0 -295 -1 -321 -21z m514 -324 l0 -195 -195 0 -195 0 0 195 0 195 195 0
195 0 0 -195z"/>
<path d="M3702 2188 c-38 -19 -43 -69 -40 -363 3 -252 4 -275 22 -294 19 -20
27 -21 327 -21 l308 0 20 26 c20 26 21 38 21 321 l0 294 -25 24 -24 25 -293
-1 c-189 0 -301 -4 -316 -11z m508 -333 l0 -195 -195 0 -195 0 0 195 0 195
195 0 195 0 0 -195z"/>
<path d="M804 1208 c-12 -5 -27 -21 -33 -34 -15 -34 -15 -574 0 -607 20 -44
43 -47 344 -47 l284 0 28 24 28 24 0 302 0 302 -28 24 -28 24 -287 -1 c-176 0
-295 -4 -308 -11z m496 -338 l0 -200 -192 2 -193 3 -3 185 c-1 101 0 190 2
197 4 10 50 13 196 13 l190 0 0 -200z"/>
<path d="M1773 1210 c-12 -5 -26 -18 -32 -29 -7 -13 -11 -125 -11 -314 0 -275
1 -296 19 -318 l19 -24 307 0 307 0 19 24 c18 22 19 43 19 321 0 278 -1 299
-19 321 l-19 24 -294 2 c-161 1 -303 -2 -315 -7z m497 -340 l0 -200 -195 0
-195 0 0 200 0 200 195 0 195 0 0 -200z"/>
<path d="M2743 1210 c-12 -5 -26 -18 -32 -29 -7 -13 -11 -125 -11 -314 0 -275
1 -296 19 -318 l19 -24 307 0 307 0 19 24 c18 22 19 43 19 321 0 278 -1 299
-19 321 l-19 24 -294 2 c-161 1 -303 -2 -315 -7z m497 -340 l0 -200 -195 0
-195 0 0 200 0 200 195 0 195 0 0 -200z"/>
<path d="M3693 1196 l-28 -24 0 -302 0 -302 28 -24 28 -24 284 0 c301 0 324 3
344 47 15 33 15 573 0 606 -20 44 -43 47 -344 47 l-284 0 -28 -24z m512 -326
l0 -195 -192 -3 -193 -2 0 200 0 200 193 -2 192 -3 0 -195z"/>
</g>
</svg>
