<svg version="1.0" xmlns="http://www.w3.org/2000/svg"
 width="512.000000pt" height="512.000000pt" viewBox="0 0 512.000000 512.000000"
 preserveAspectRatio="xMidYMid meet">

<g transform="translate(0.000000,512.000000) scale(0.100000,-0.100000)"
fill="#f6425b" stroke="none">
<path d="M445 4259 c-76 -11 -205 -73 -267 -128 -58 -51 -115 -136 -148 -221
l-25 -65 0 -1285 0 -1285 25 -65 c33 -85 90 -170 148 -221 72 -63 192 -117
287 -130 53 -6 771 -9 2150 -7 l2070 3 65 23 c81 30 188 100 235 155 46 53 87
127 111 197 18 53 19 111 19 1330 0 1219 -1 1277 -19 1330 -57 170 -177 290
-348 352 l-63 23 -2090 1 c-1164 1 -2117 -2 -2150 -7z m4259 -230 c121 -45
193 -155 203 -309 l6 -90 -2353 0 -2353 0 5 88 c8 128 51 216 135 273 89 62
-69 58 2210 58 2089 1 2092 1 2147 -20z m196 -829 l0 -210 -2340 0 -2340 0 0
210 0 210 2340 0 2340 0 0 -210z m8 -1157 l-3 -728 -26 -56 c-33 -69 -89 -127
-155 -160 l-49 -24 -2115 0 -2115 0 -49 24 c-66 33 -122 91 -155 160 l-26 56
-3 728 -3 727 2351 0 2351 0 -3 -727z"/>
<path d="M3877 2340 c-102 -26 -192 -104 -227 -197 -19 -52 -21 -74 -18 -237
3 -168 5 -185 27 -230 33 -66 91 -122 160 -155 54 -25 63 -26 226 -26 139 0
180 3 223 18 70 25 152 101 183 169 23 50 24 65 24 238 0 173 -1 188 -24 238
-29 65 -113 143 -178 167 -56 21 -331 31 -396 15z m342 -226 c39 -28 51 -73
51 -194 0 -195 -16 -210 -212 -210 -209 0 -218 8 -218 210 0 141 10 177 54
199 12 5 84 10 161 10 115 1 145 -2 164 -15z"/>
<path d="M693 2118 c-57 -28 -67 -122 -17 -169 l26 -24 671 -3 c608 -3 675 -1
703 13 61 32 74 117 25 166 l-29 29 -679 -1 c-448 0 -685 -4 -700 -11z"/>
<path d="M703 1695 c-33 -14 -63 -59 -63 -95 0 -37 30 -81 65 -96 50 -21 1309
-21 1359 0 43 18 66 51 66 96 0 45 -23 78 -66 96 -49 21 -1314 20 -1361 -1z"/>
</g>
</svg>
