<svg version="1.0" xmlns="http://www.w3.org/2000/svg"
 width="512.000000pt" height="512.000000pt" viewBox="0 0 512.000000 512.000000"
 preserveAspectRatio="xMidYMid meet">

<g transform="translate(0.000000,512.000000) scale(0.100000,-0.100000)"
fill="#f6425b" stroke="none">
<path d="M2390 5110 c-661 -81 -1188 -582 -1300 -1235 -17 -98 -20 -162 -20
-396 l0 -279 -170 0 c-133 0 -177 -3 -200 -15 -64 -33 -60 59 -60 -1428 0
-868 4 -1373 10 -1407 32 -170 170 -308 339 -340 74 -14 3069 -14 3141 0 170
32 308 170 340 339 6 34 10 543 10 1408 0 1487 4 1395 -60 1428 -23 12 -67 15
-200 15 l-170 0 0 279 c0 234 -3 298 -20 396 -81 474 -380 873 -821 1095 -87
44 -278 106 -384 125 -111 19 -334 27 -435 15z m395 -226 c486 -79 905 -474
1018 -959 30 -126 37 -222 37 -476 l0 -249 -105 0 -105 0 0 208 c0 363 -25
506 -120 697 -178 358 -547 585 -950 585 -403 0 -772 -227 -950 -585 -95 -191
-120 -334 -120 -697 l0 -208 -105 0 -105 0 0 249 c0 369 21 493 124 722 85
192 256 391 441 514 287 191 592 255 940 199z m10 -439 c234 -68 424 -229 530
-448 74 -156 78 -174 82 -504 l5 -293 -852 0 -852 0 5 293 c4 330 8 348 82
504 121 250 350 422 632 473 89 16 269 4 368 -25z m1473 -2735 c1 -907 -1
-1291 -9 -1329 -15 -76 -83 -144 -158 -160 -74 -16 -3008 -16 -3082 0 -74 16
-142 84 -158 158 -12 57 -17 2592 -4 2604 3 4 772 6 1707 5 l1701 -3 3 -1275z"/>
<path d="M2493 2340 c-177 -26 -328 -181 -353 -363 -18 -127 28 -268 118 -356
l50 -48 -35 -312 c-38 -340 -38 -352 16 -388 23 -16 52 -18 271 -18 219 0 248
2 271 18 54 36 54 48 16 388 l-35 312 50 48 c90 88 136 229 118 356 -33 236
-250 397 -487 363z m180 -242 c61 -41 91 -93 95 -164 6 -88 -31 -152 -121
-209 -60 -39 -61 -47 -27 -346 16 -149 30 -279 30 -290 0 -17 -8 -19 -90 -19
-82 0 -90 2 -90 19 0 11 14 141 30 290 34 299 33 307 -27 346 -82 52 -123 117
-123 196 0 82 45 154 122 193 51 26 152 18 201 -16z"/>
</g>
</svg>
