<svg version="1.0" xmlns="http://www.w3.org/2000/svg"
 width="512.000000pt" height="512.000000pt" viewBox="0 0 512.000000 512.000000"
 preserveAspectRatio="xMidYMid meet">

<g transform="translate(0.000000,512.000000) scale(0.100000,-0.100000)"
fill="#f6425b" stroke="none">
<path d="M1904 5059 c-509 -49 -874 -375 -979 -874 -26 -122 -31 -328 -11
-462 38 -255 131 -482 287 -700 33 -45 59 -83 59 -86 0 -2 -21 -12 -47 -22
-83 -31 -261 -123 -346 -178 -458 -299 -751 -779 -842 -1377 -20 -137 -30
-420 -17 -538 12 -114 19 -123 165 -210 511 -303 990 -476 1498 -538 162 -21
526 -23 679 -5 350 41 670 125 990 261 74 31 152 66 174 77 38 20 39 20 115 1
100 -26 347 -35 462 -18 185 26 391 115 551 235 384 289 558 788 439 1257
-115 455 -485 804 -948 894 -119 23 -330 24 -446 1 -96 -19 -235 -66 -310
-103 l-48 -25 -106 71 c-115 77 -223 135 -345 185 l-77 31 57 77 c291 392 385
900 244 1317 -61 179 -150 319 -283 443 -175 165 -395 260 -668 287 -113 11
-128 11 -247 -1z m346 -255 c516 -106 784 -606 635 -1189 -97 -381 -409 -753
-709 -844 -128 -39 -266 -24 -395 44 -253 134 -478 418 -580 732 -45 141 -56
214 -56 383 1 126 5 172 23 245 29 117 106 273 176 357 198 236 554 343 906
272z m-714 -2120 c275 -197 568 -227 847 -88 58 29 122 70 209 133 23 17 77 3
228 -61 96 -40 273 -139 285 -158 4 -6 -30 -49 -74 -95 -294 -307 -403 -751
-285 -1164 33 -116 119 -288 193 -387 67 -90 189 -210 269 -264 28 -19 52 -37
52 -40 0 -8 -173 -75 -297 -116 -679 -222 -1367 -202 -2039 62 -164 64 -363
160 -531 256 -170 97 -159 72 -150 327 11 319 71 571 197 821 186 370 518 661
910 800 47 16 90 30 97 30 6 0 47 -25 89 -56z m2489 -135 c227 -28 434 -134
592 -302 80 -86 116 -139 169 -251 66 -140 88 -242 88 -411 0 -111 -4 -158
-22 -229 -73 -291 -289 -547 -560 -661 -143 -60 -199 -70 -387 -70 -147 0
-181 3 -249 23 -241 69 -455 233 -580 440 -56 94 -110 244 -127 352 -16 104
-6 294 21 395 110 412 491 712 920 724 25 0 86 -4 135 -10z"/>
<path d="M4395 2029 c-11 -6 -155 -146 -320 -310 l-300 -299 -165 166 c-91 91
-177 172 -192 180 -99 52 -207 -63 -154 -164 18 -32 432 -445 463 -461 28 -14
68 -14 96 0 31 16 715 698 733 731 18 35 18 62 -2 104 -27 56 -105 82 -159 53z"/>
</g>
</svg>
